<svg width="256" height="225" viewBox="0 0 256 225" fill="none" xmlns="http://www.w3.org/2000/svg">
<g clip-path="url(#clip0_104_25)">
<path d="M215.91 61.685V163.194L128 213.949L40.09 163.194V61.685L128 10.93L215.91 61.685Z" fill="white"/>
<path d="M254.417 107.417L196.323 6.35C194.213 2.696 190.315 0 186.095 0H69.906C65.686 0 61.786 2.696 59.676 6.35L1.58301 107.194C-0.527994 110.849 -0.527994 115.462 1.58301 119.117L59.676 219.356C61.786 223.01 65.686 224.878 69.906 224.878H186.094C190.314 224.878 194.213 223.066 196.322 219.411L236.065 150.724C238.753 153.897 240.115 154.873 240.151 153.652C239.016 149.98 239.227 146.285 240.784 142.568L254.416 119.009C256.528 115.356 256.528 111.071 254.417 107.417ZM206.312 156.016C206.312 157.502 205.418 158.877 204.13 159.621L141.23 195.911C137.771 193.24 135.027 192.269 133 193C135.137 197.502 135.137 200.169 133 201L130.131 202.314C128.844 203.057 127.232 203.057 125.945 202.314L51.889 159.621C50.602 158.877 49.701 157.503 49.701 156.016V70.628C49.701 69.141 50.589 67.768 51.877 67.024L125.872 24.33C127.159 23.586 128.77 23.586 130.057 24.33L204.118 67.024C205.406 67.768 206.312 69.141 206.312 70.628V108.873C206.106 112.084 203.669 113.127 199 112C198.647 111.915 201.084 113.018 206.312 115.309V156.016Z" fill="#4B32C3"/>
<path d="M77.965 80.568L126.535 52.527C127.75 51.825 129.249 51.825 130.464 52.527L179.035 80.568C180.25 81.27 181 82.567 181 83.971V140.055C181 141.458 180.25 142.755 179.035 143.458L130.464 171.5C129.249 172.202 127.75 172.202 126.535 171.5L77.965 143.458C76.749 142.756 76 141.459 76 140.055V83.971C76.001 82.567 76.75 81.27 77.965 80.568Z" fill="#8080F2"/>
<path d="M127 167.439C127 152.23 132.987 137.668 143.827 126.827C154.668 115.987 169.23 110 184.439 110C199.648 110 214.211 115.987 225.051 126.827C235.892 137.668 241.878 152.23 241.878 167.439C241.878 182.648 235.892 197.211 225.051 208.051C214.211 218.892 199.648 224.878 184.439 224.878C169.23 224.878 154.668 218.892 143.827 208.051C132.987 197.211 127 182.648 127 167.439Z" fill="#4B32C3"/>
<path d="M143.827 167.439C143.827 145.025 162.025 126.827 184.439 126.827C206.854 126.827 225.051 145.025 225.051 167.439C225.051 189.854 206.854 208.051 184.439 208.051C162.025 208.051 143.827 189.854 143.827 167.439Z" fill="white"/>
<g clip-path="url(#clip1_104_25)">
<path fill-rule="evenodd" clip-rule="evenodd" d="M186.218 150.546C185.601 150.188 184.901 150 184.188 150C183.474 150 182.774 150.188 182.157 150.546L170.016 157.588C169.403 157.944 168.894 158.454 168.54 159.069C168.186 159.683 168 160.38 168 161.089V175.191C168 176.634 168.768 177.966 170.016 178.692L182.157 185.733C182.774 186.091 183.474 186.279 184.188 186.279C184.901 186.279 185.601 186.091 186.218 185.733L198.359 178.692C199.607 177.968 200.375 176.634 200.375 175.191V161.089C200.375 159.646 199.607 158.314 198.359 157.588L186.218 150.546ZM183.898 153.548C183.986 153.497 184.086 153.47 184.188 153.47C184.289 153.47 184.389 153.497 184.477 153.548L195.183 159.757L184.188 166.135L173.192 159.757L183.898 153.548ZM171.469 162.768V175.191C171.469 175.399 171.577 175.586 171.758 175.69L182.453 181.894V169.139L171.469 162.768ZM185.922 181.894L196.617 175.69C196.705 175.639 196.778 175.567 196.829 175.479C196.879 175.391 196.906 175.292 196.906 175.191V162.768L185.922 169.139V181.894Z" fill="#464646"/>
</g>
<path d="M164.167 185C162.369 185 160.645 184.503 159.374 183.619C158.103 182.735 157.389 181.536 157.389 180.286V170.857L154 168.5L157.389 166.143V156.714C157.389 155.464 158.103 154.265 159.374 153.381C160.645 152.497 162.369 152 164.167 152M204.833 185C206.631 185 208.355 184.503 209.626 183.619C210.897 182.735 211.611 181.536 211.611 180.286V170.857L215 168.5L211.611 166.143V156.714C211.611 155.464 210.897 154.265 209.626 153.381C208.355 152.497 206.631 152 204.833 152" stroke="#464646" stroke-width="4.2" stroke-linecap="round" stroke-linejoin="round"/>
<path fill-rule="evenodd" clip-rule="evenodd" d="M215.747 141.733L158.733 198.747C156.606 196.992 154.662 195.023 152.933 192.875L209.875 135.933C212.023 137.662 213.992 139.606 215.747 141.733Z" fill="#DD2E44"/>
</g>
<defs>
<clipPath id="clip0_104_25">
<rect width="256" height="224.878" fill="white"/>
</clipPath>
<clipPath id="clip1_104_25">
<rect width="37" height="37" fill="white" transform="translate(166 149)"/>
</clipPath>
</defs>
</svg>
