<svg width="256" height="225" viewBox="0 0 256 225" fill="none" xmlns="http://www.w3.org/2000/svg">
<g clip-path="url(#clip0_1_2)">
<path d="M215.91 61.685V163.194L128 213.949L40.09 163.194V61.685L128 10.93L215.91 61.685Z" fill="white"/>
<path d="M254.417 107.417L196.323 6.35C194.213 2.696 190.315 0 186.095 0H69.906C65.686 0 61.786 2.696 59.676 6.35L1.58301 107.194C-0.527994 110.849 -0.527994 115.462 1.58301 119.117L59.676 219.356C61.786 223.01 65.686 224.878 69.906 224.878H186.094C190.314 224.878 194.213 223.066 196.322 219.411L236.065 150.724C238.753 153.897 240.115 154.873 240.151 153.652C239.016 149.98 239.227 146.285 240.784 142.568L254.416 119.009C256.528 115.356 256.528 111.071 254.417 107.417ZM206.312 156.016C206.312 157.502 205.418 158.877 204.13 159.621L141.23 195.911C137.771 193.24 135.027 192.269 133 193C135.137 197.502 135.137 200.169 133 201L130.131 202.314C128.844 203.057 127.232 203.057 125.945 202.314L51.889 159.621C50.602 158.877 49.701 157.503 49.701 156.016V70.628C49.701 69.141 50.589 67.768 51.877 67.024L125.872 24.33C127.159 23.586 128.77 23.586 130.057 24.33L204.118 67.024C205.406 67.768 206.312 69.141 206.312 70.628V108.873C206.106 112.084 203.669 113.127 199 112C198.647 111.915 201.084 113.018 206.312 115.309V156.016Z" fill="#4B32C3"/>
<path d="M77.965 80.568L126.535 52.527C127.75 51.825 129.249 51.825 130.464 52.527L179.035 80.568C180.25 81.27 181 82.567 181 83.971V140.055C181 141.458 180.25 142.755 179.035 143.458L130.464 171.5C129.249 172.202 127.75 172.202 126.535 171.5L77.965 143.458C76.749 142.756 76 141.459 76 140.055V83.971C76.001 82.567 76.75 81.27 77.965 80.568Z" fill="#8080F2"/>
<path d="M127 167.439C127 152.23 132.987 137.668 143.827 126.827C154.668 115.987 169.23 110 184.439 110C199.648 110 214.211 115.987 225.051 126.827C235.892 137.668 241.878 152.23 241.878 167.439C241.878 182.648 235.892 197.211 225.051 208.051C214.211 218.892 199.648 224.878 184.439 224.878C169.23 224.878 154.668 218.892 143.827 208.051C132.987 197.211 127 182.648 127 167.439Z" fill="#4B32C3"/>
<path d="M143.827 167.439C143.827 145.025 162.025 126.827 184.439 126.827C206.854 126.827 225.051 145.025 225.051 167.439C225.051 189.854 206.854 208.051 184.439 208.051C162.025 208.051 143.827 189.854 143.827 167.439Z" fill="white"/>
<path d="M161.25 157.708L152 166.958L161.25 176.208" stroke="#464646" stroke-width="4" stroke-linecap="round" stroke-linejoin="round"/>
<path d="M207.5 176.208L216.75 166.958L207.5 157.708" stroke="#464646" stroke-width="4" stroke-linecap="round" stroke-linejoin="round"/>
<path d="M191.312 164.492L177.438 156.49" stroke="#464646" stroke-width="4" stroke-linecap="round" stroke-linejoin="round"/>
<path d="M198.25 174.667V162.333C198.249 161.793 198.107 161.262 197.836 160.793C197.566 160.325 197.177 159.937 196.708 159.666L185.917 153.5C185.448 153.229 184.916 153.086 184.375 153.086C183.834 153.086 183.302 153.229 182.833 153.5L172.042 159.666C171.573 159.937 171.184 160.325 170.914 160.793C170.643 161.262 170.501 161.793 170.5 162.333V174.667C170.501 175.207 170.643 175.738 170.914 176.207C171.184 176.675 171.573 177.063 172.042 177.334L182.833 183.5C183.302 183.771 183.834 183.914 184.375 183.914C184.916 183.914 185.448 183.771 185.917 183.5L196.708 177.334C197.177 177.063 197.566 176.675 197.836 176.207C198.107 175.738 198.249 175.207 198.25 174.667Z" stroke="#464646" stroke-width="4" stroke-linecap="round" stroke-linejoin="round"/>
<path d="M170.916 160.73L184.375 168.515L197.834 160.73" stroke="#464646" stroke-width="4" stroke-linecap="round" stroke-linejoin="round"/>
<path d="M184.375 184.04V168.5" stroke="#464646" stroke-width="4" stroke-linecap="round" stroke-linejoin="round"/>
<path fill-rule="evenodd" clip-rule="evenodd" d="M215.747 141.733L158.733 198.747C156.606 196.992 154.662 195.023 152.933 192.875L209.875 135.933C212.023 137.662 213.992 139.606 215.747 141.733Z" fill="#DD2E44"/>
</g>
<defs>
<clipPath id="clip0_1_2">
<rect width="256" height="224.878" fill="white"/>
</clipPath>
</defs>
</svg>
